<?xml version="1.0" standalone="no"?><!DOCTYPE svg PUBLIC "-//W3C//DTD SVG 1.1//EN" "http://www.w3.org/Graphics/SVG/1.1/DTD/svg11.dtd"><svg t="1613174584918" class="icon" viewBox="0 0 1024 1024" version="1.1" xmlns="http://www.w3.org/2000/svg" p-id="2131" xmlns:xlink="http://www.w3.org/1999/xlink" width="200" height="200"><defs><style type="text/css"></style></defs><path d="M951.466667 584.533333l-96-96c-12.8-12.8-32-12.8-44.8 0-12.8 12.8-12.8 32 0 44.8l40.533333 40.533334H541.866667c-17.066667 0-32 14.933333-32 32s14.933333 32 32 32h309.333333L810.666667 678.4c-12.8 12.8-12.8 32 0 44.8 6.4 6.4 14.933333 8.533333 23.466666 8.533333s17.066667-2.133333 23.466667-8.533333l96-96c8.533333-8.533333 8.533333-29.866667-2.133333-42.666667z" fill="#212121" p-id="2132"></path><path d="M768 800c-17.066667 0-32 14.933333-32 32v128H128V64h352v224c0 17.066667 14.933333 32 32 32h224v64c0 17.066667 14.933333 32 32 32s32-14.933333 32-32v-123.733333c0-8.533333-4.266667-17.066667-10.666667-23.466667L535.466667 8.533333c-6.4-4.266667-12.8-8.533333-21.333334-8.533333H96C78.933333 0 64 14.933333 64 32v960c0 17.066667 14.933333 32 32 32H768c17.066667 0 32-14.933333 32-32V832c0-17.066667-14.933333-32-32-32zM544 102.4l170.666667 153.6h-170.666667V102.4z" fill="#212121" p-id="2133"></path></svg>