<?xml version="1.0" standalone="no"?><!DOCTYPE svg PUBLIC "-//W3C//DTD SVG 1.1//EN" "http://www.w3.org/Graphics/SVG/1.1/DTD/svg11.dtd"><svg t="1613177381409" class="icon" viewBox="0 0 1024 1024" version="1.1" xmlns="http://www.w3.org/2000/svg" p-id="5402" xmlns:xlink="http://www.w3.org/1999/xlink" width="200" height="200"><defs><style type="text/css"></style></defs><path d="M369.122 523.806c6.464 27.994-24.246 49.27-48.136 34.336l-81.472-50.91-101.734 162.804C111.212 712.546 141.92 768 192.024 768H296c13.254 0 24 10.746 24 24v80c0 13.254-10.746 24-24 24H192.23c-150.668 0-242.604-166.096-162.816-293.76l101.644-162.776-81.45-50.896c-24.162-15.094-17.932-51.922 9.758-58.316l220.474-50.9c17.222-3.976 34.402 6.762 38.378 23.98l50.904 220.474z m197.122-365.83l82.578 132.152-81.48 50.914c-24.102 15.056-18 51.906 9.758 58.316l220.474 50.9c17.344 3.998 34.43-6.876 38.378-23.98l50.9-220.474c6.394-27.688-23.98-49.438-48.136-34.336l-81.374 50.848-82.526-132.164c-75.042-120.066-250.418-120.342-325.632 0l-35.926 57.532c-7.02 11.24-3.6 26.042 7.64 33.066l67.838 42.39c11.24 7.024 26.048 3.606 33.072-7.634l35.922-57.486c25.424-40.682 83.946-39.352 108.514-0.044zM994.576 602.24l-55.03-88.13c-7.022-11.246-21.832-14.668-33.076-7.642l-67.722 42.318c-11.24 7.024-14.66 21.83-7.636 33.072l55.128 88.224c26.514 42.422-4.114 97.92-54.272 97.92H640V672.04c0-28.426-34.484-42.766-54.626-22.626l-160 159.962c-12.498 12.496-12.498 32.758 0 45.254l160 159.978C605.378 1034.616 640 1020.6 640 991.978V896h191.76c150.548 0 242.67-165.994 162.816-293.76z" fill="" p-id="5403"></path></svg>