<?xml version="1.0" standalone="no"?><!DOCTYPE svg PUBLIC "-//W3C//DTD SVG 1.1//EN" "http://www.w3.org/Graphics/SVG/1.1/DTD/svg11.dtd"><svg t="1613177061951" class="icon" viewBox="0 0 1024 1024" version="1.1" xmlns="http://www.w3.org/2000/svg" p-id="4505" xmlns:xlink="http://www.w3.org/1999/xlink" width="200" height="200"><defs><style type="text/css"></style></defs><path d="M512 136.3c50.7 0 99.9 9.9 146.2 29.5 44.7 18.9 84.9 46 119.5 80.6 34.5 34.5 61.6 74.7 80.6 119.5 19.6 46.3 29.5 95.5 29.5 146.2s-9.9 99.9-29.5 146.2c-18.9 44.7-46 84.9-80.6 119.5-34.5 34.5-74.7 61.6-119.5 80.6-46.3 19.6-95.5 29.5-146.2 29.5s-99.9-9.9-146.2-29.5c-44.7-18.9-84.9-46-119.4-80.6-34.5-34.5-61.6-74.7-80.6-119.5-19.6-46.3-29.5-95.5-29.5-146.2s9.9-99.9 29.5-146.2c18.9-44.7 46-84.9 80.6-119.5 34.5-34.5 74.7-61.6 119.4-80.6 46.3-19.6 95.5-29.5 146.2-29.5m0-70C265.9 66.3 66.3 265.9 66.3 512S265.9 957.7 512 957.7 957.7 758.1 957.7 512 758.1 66.3 512 66.3z" fill="#91B1D5" p-id="4506"></path><path d="M756.3 563.1l-96.4 86.8c-15.9 15.9-42 15.9-58 0V419c15.9-15.9 42-15.9 58 0l96.4 86.1c16 16 16 42.1 0 58z" fill="#91B1D5" p-id="4507"></path><path d="M399 343.5s-57 12-60 66 61.5 63 61.5 63h258V600H402s-130.5 1.5-130.5-127.5 127.5-129 127.5-129z" fill="#91B1D5" p-id="4508"></path></svg>