<?xml version="1.0" standalone="no"?><!DOCTYPE svg PUBLIC "-//W3C//DTD SVG 1.1//EN" "http://www.w3.org/Graphics/SVG/1.1/DTD/svg11.dtd"><svg t="1613446232204" class="icon" viewBox="0 0 1024 1024" version="1.1" xmlns="http://www.w3.org/2000/svg" p-id="4989" xmlns:xlink="http://www.w3.org/1999/xlink" width="200" height="200"><defs><style type="text/css"></style></defs><path d="M826.807701 315.83519l-0.10703 0.010703h0.21406z" fill="#E60012" p-id="4990"></path><path d="M962.917909 963.98821a37.481949 37.481949 0 0 1-52.979911 0L773.710057 827.770972a37.481949 37.481949 0 0 1 0-52.979911 37.481949 37.481949 0 0 1 52.979911 0l136.227941 136.227941a37.460543 37.460543 0 0 1 0 52.969208z" fill="#3E3A39" p-id="4991"></path><path d="M504.101177 59.851245c-249.744089 0-452.20227 202.458181-452.20227 452.20227s202.458181 452.20227 452.20227 452.20227 452.20227-202.458181 452.20227-452.20227-202.458181-452.20227-452.20227-452.20227z m0 829.483454c-208.045153 0-377.281184-169.246734-377.281184-377.281184s169.236031-377.281184 377.281184-377.281184c208.023747 0 377.281184 169.246734 377.281184 377.281184s-169.26814 377.281184-377.281184 377.281184z" fill="#3E3A39" p-id="4992"></path><path d="M340.601961 512.053515m-37.460543 0a37.460543 37.460543 0 1 0 74.921086 0 37.460543 37.460543 0 1 0-74.921086 0Z" fill="#3E3A39" p-id="4993"></path><path d="M504.101177 512.053515m-37.460543 0a37.460543 37.460543 0 1 0 74.921086 0 37.460543 37.460543 0 1 0-74.921086 0Z" fill="#3E3A39" p-id="4994"></path><path d="M667.568284 512.053515m-37.460543 0a37.460543 37.460543 0 1 0 74.921086 0 37.460543 37.460543 0 1 0-74.921086 0Z" fill="#3E3A39" p-id="4995"></path></svg>