<?xml version="1.0" standalone="no"?><!DOCTYPE svg PUBLIC "-//W3C//DTD SVG 1.1//EN" "http://www.w3.org/Graphics/SVG/1.1/DTD/svg11.dtd"><svg t="1613613066664" class="icon" viewBox="0 0 1024 1024" version="1.1" xmlns="http://www.w3.org/2000/svg" p-id="2222" xmlns:xlink="http://www.w3.org/1999/xlink" width="200" height="200"><defs><style type="text/css"></style></defs><path d="M556.620755 690.64368l-89.289606 0L467.331149 467.311195l89.289606 0L556.620755 690.64368zM690.70866 378.021589l-89.419566 0 0 312.62209 89.419566 0L690.70866 378.021589zM288.623002 243.934708l-44.623313 0 0 535.9996 44.623313 0 491.331261 0 0-44.667316L288.623002 735.266993 288.623002 243.934708zM422.709883 556.686758l-89.421612 0 0 133.956921 89.421612 0L422.709883 556.686758zM958.70846 243.934708l0 535.9996c0 98.755188-80.000032 178.709171-178.75522 178.709171L243.998665 958.64348c-98.623181 0-178.709171-79.953983-178.709171-178.709171L65.289494 243.934708c0-98.581226 80.08599-178.579211 178.709171-178.579211l535.954575 0C878.708428 65.355497 958.70846 145.353482 958.70846 243.934708zM869.286848 288.687982c0-74.067926-59.932997-134.042879-133.954875-134.042879L288.623002 154.645103c-73.979922 0-133.912919 59.974953-133.912919 134.042879l0 446.577988c0 74.023924 59.932997 134.086881 133.912919 134.086881l446.708971 0c74.021877 0 133.954875-60.062957 133.954875-134.086881L869.286848 288.687982z" p-id="2223"></path></svg>